<?xml version="1.0" standalone="no"?>
<!DOCTYPE svg PUBLIC "-//W3C//DTD SVG 20010904//EN"
 "http://www.w3.org/TR/2001/REC-SVG-20010904/DTD/svg10.dtd">
<svg version="1.0" xmlns="http://www.w3.org/2000/svg"
 width="2360.000000pt" height="1640.000000pt" viewBox="0 0 2360.000000 1640.000000"
 preserveAspectRatio="xMidYMid meet">

<g transform="translate(0.000000,1640.000000) scale(0.100000,-0.100000)"
fill="#ffffff" stroke="none">
<path d="M11345 15880 c-194 -11 -514 -39 -535 -47 -8 -3 -94 -19 -190 -34
-201 -32 -426 -76 -455 -89 -11 -5 -76 -21 -144 -36 -69 -14 -132 -30 -140
-35 -9 -5 -56 -19 -106 -33 -144 -39 -428 -132 -490 -160 -16 -7 -55 -22 -85
-31 -30 -10 -57 -21 -60 -24 -3 -3 -23 -12 -45 -20 -45 -15 -176 -70 -250
-105 -138 -65 -488 -241 -550 -276 -38 -22 -92 -51 -118 -65 -26 -14 -72 -41
-102 -60 -30 -19 -57 -35 -60 -35 -3 0 -11 -4 -18 -10 -19 -16 -120 -81 -147
-95 -14 -7 -67 -43 -117 -79 -51 -36 -95 -66 -99 -66 -4 0 -14 -7 -23 -15 -9
-8 -59 -46 -111 -84 -160 -117 -180 -133 -290 -224 -58 -48 -122 -102 -143
-120 -241 -201 -618 -578 -814 -814 -157 -188 -208 -252 -222 -273 -8 -14 -24
-31 -33 -38 -10 -7 -18 -17 -18 -22 0 -5 -30 -49 -67 -99 -93 -122 -213 -297
-213 -309 0 -5 -7 -12 -15 -16 -8 -3 -15 -10 -15 -16 0 -6 -18 -38 -40 -70
-22 -32 -40 -61 -40 -64 0 -3 -21 -38 -47 -78 -26 -40 -57 -93 -71 -118 -13
-25 -41 -76 -62 -115 -21 -38 -89 -171 -150 -295 -61 -124 -118 -238 -127
-255 -8 -16 -26 -59 -39 -94 -14 -36 -28 -69 -32 -75 -5 -6 -17 -33 -27 -61
-9 -27 -24 -63 -31 -80 -34 -78 -122 -327 -159 -455 -14 -47 -29 -92 -34 -100
-4 -8 -18 -55 -30 -105 -12 -49 -26 -97 -31 -106 -4 -8 -20 -71 -35 -140 -14
-68 -30 -133 -35 -144 -5 -11 -18 -76 -30 -145 -12 -69 -25 -135 -30 -146 -5
-12 -18 -100 -30 -195 -11 -96 -25 -187 -30 -204 -43 -142 -60 -1042 -27
-1435 10 -113 22 -218 27 -235 5 -16 19 -106 30 -199 12 -93 26 -176 30 -185
5 -9 18 -71 30 -139 11 -68 25 -133 30 -145 5 -12 21 -76 36 -142 14 -66 30
-124 34 -130 4 -5 17 -53 30 -105 13 -52 26 -99 30 -105 5 -5 18 -44 30 -85
12 -41 27 -88 35 -105 7 -16 23 -59 35 -95 12 -36 25 -69 30 -75 4 -5 15 -35
25 -65 16 -51 58 -126 78 -141 9 -6 -27 -122 -44 -145 -7 -9 -40 -118 -70
-234 -5 -19 -18 -109 -29 -200 -11 -91 -25 -166 -30 -168 -15 -5 -12 -33 6
-53 14 -16 14 -21 0 -51 -8 -18 -24 -67 -36 -108 -11 -41 -25 -88 -31 -105
-15 -41 -23 -330 -11 -380 28 -112 54 -181 97 -258 94 -169 229 -299 390 -376
105 -51 176 -64 321 -59 99 3 127 7 166 26 51 25 163 104 214 149 16 16 43 39
58 51 16 13 24 28 20 32 -9 9 -150 -25 -169 -40 -5 -5 -73 -18 -150 -30 -152
-25 -268 -23 -358 4 -177 55 -361 236 -429 421 -10 28 -22 57 -27 66 -22 38
-33 205 -22 313 7 60 16 115 21 124 4 10 16 46 25 82 16 65 28 94 93 228 67
138 196 313 221 298 9 -6 21 16 21 40 0 9 -12 14 -36 14 -30 0 -45 -9 -96 -57
-33 -32 -87 -94 -121 -138 -33 -44 -57 -71 -52 -60 4 11 18 68 30 127 13 59
40 148 59 198 20 49 36 94 36 99 0 5 3 11 8 13 4 1 19 28 34 58 69 138 175
288 287 403 139 143 345 273 496 312 39 10 75 22 80 26 6 4 66 12 135 19 69 6
136 13 150 16 14 2 70 9 125 15 55 6 121 13 148 16 48 5 61 19 30 30 -10 3
-36 14 -59 24 -22 10 -72 25 -110 34 -38 9 -78 21 -89 27 -27 16 -218 22 -285
10 -125 -22 -275 -73 -365 -124 -10 -6 -39 -21 -62 -34 -127 -67 -321 -255
-439 -424 l-41 -59 -26 67 c-15 37 -34 94 -43 127 -9 33 -20 65 -25 70 -4 6
-17 49 -29 95 -12 47 -26 90 -30 95 -4 6 -17 53 -29 105 -12 52 -26 102 -30
111 -5 8 -21 73 -35 145 -15 71 -31 138 -36 149 -8 18 -34 157 -75 404 -8 47
-19 146 -26 220 -7 75 -16 141 -20 146 -4 6 -13 111 -20 235 -13 235 -6 823
11 970 46 389 50 416 95 675 14 83 30 159 35 170 5 11 21 81 36 155 15 74 30
140 34 145 4 6 18 53 30 105 12 52 25 100 30 105 4 6 11 26 15 45 13 62 161
497 175 515 4 6 13 28 20 50 7 22 26 67 41 101 16 34 29 64 29 67 0 30 213
453 368 729 33 59 140 234 179 293 132 199 272 398 306 435 8 8 16 22 20 30 3
8 55 76 117 150 61 74 125 153 143 174 173 211 567 606 817 817 157 133 530
419 546 419 3 0 45 28 94 63 128 89 312 205 422 266 26 14 85 47 131 73 118
66 413 215 467 235 25 9 47 20 50 23 3 4 34 18 70 33 117 47 214 87 245 101
17 8 55 21 85 31 30 10 60 21 65 25 6 5 51 20 100 36 50 15 95 30 100 35 6 4
48 17 95 29 47 12 90 25 95 30 6 5 53 19 105 31 52 12 100 25 105 30 6 4 69
19 140 34 72 14 137 30 147 35 9 5 78 19 155 31 76 13 140 26 143 30 3 4 88
16 190 28 102 12 199 26 215 31 157 46 1429 47 1540 1 11 -5 105 -19 209 -31
105 -12 197 -26 205 -31 9 -4 72 -18 141 -29 69 -11 134 -25 145 -30 11 -5 76
-21 144 -35 69 -15 132 -31 140 -36 9 -5 57 -19 106 -33 128 -34 255 -74 290
-90 17 -7 55 -21 85 -31 30 -10 79 -28 108 -41 29 -13 57 -24 62 -24 6 0 39
-13 73 -30 35 -16 67 -30 71 -30 11 0 322 -144 411 -191 44 -23 105 -55 135
-70 30 -16 84 -47 119 -69 34 -22 66 -40 69 -40 12 0 346 -219 457 -299 98
-71 219 -164 312 -240 17 -14 50 -42 74 -61 140 -115 395 -356 532 -504 61
-67 102 -113 91 -103 -11 9 -26 17 -32 17 -7 0 -12 3 -12 8 0 6 -154 115 -208
147 -9 6 -28 17 -42 26 -101 66 -444 249 -467 249 -5 0 -26 10 -48 21 -22 12
-64 30 -94 40 -30 11 -59 23 -65 28 -6 4 -42 18 -81 31 -38 12 -83 28 -100 35
-16 7 -59 21 -95 31 -36 9 -69 20 -75 24 -5 4 -59 19 -120 34 -60 14 -132 33
-160 41 -27 8 -97 21 -155 30 -58 9 -114 20 -125 25 -20 10 -197 31 -420 52
-155 14 -633 14 -800 -1 -201 -17 -407 -41 -440 -52 -16 -5 -88 -18 -160 -29
-71 -12 -139 -25 -150 -30 -11 -5 -76 -21 -145 -35 -69 -15 -129 -31 -135 -35
-5 -4 -44 -15 -85 -25 -41 -10 -88 -23 -105 -31 -16 -7 -64 -23 -105 -35 -41
-12 -79 -25 -85 -29 -5 -4 -44 -17 -85 -30 -41 -12 -84 -28 -95 -35 -11 -6
-38 -18 -60 -25 -111 -36 -508 -223 -700 -330 -38 -21 -88 -48 -110 -61 -22
-12 -42 -25 -45 -29 -3 -3 -13 -9 -23 -13 -45 -17 -478 -305 -536 -357 -9 -8
-29 -23 -45 -34 -16 -10 -76 -57 -133 -105 -58 -47 -115 -93 -127 -101 -42
-29 -190 -164 -349 -320 -153 -149 -387 -399 -427 -457 -8 -12 -54 -68 -101
-126 -48 -57 -95 -117 -105 -133 -11 -16 -25 -35 -32 -44 -24 -27 -112 -152
-197 -280 -141 -214 -153 -233 -262 -428 -49 -87 -240 -473 -264 -534 -11 -29
-24 -57 -29 -63 -4 -5 -17 -38 -29 -73 -12 -34 -26 -70 -31 -80 -13 -22 -54
-135 -86 -232 -13 -41 -28 -82 -33 -91 -6 -9 -22 -61 -36 -115 -14 -55 -30
-108 -35 -119 -13 -27 -56 -203 -86 -350 -13 -66 -29 -133 -34 -150 -11 -36
-25 -123 -51 -328 -11 -83 -25 -190 -31 -237 -15 -113 -15 -848 0 -960 6 -47
20 -152 31 -235 27 -206 40 -287 50 -310 5 -11 19 -72 31 -135 12 -63 25 -119
29 -125 4 -5 13 -35 20 -65 16 -70 101 -342 111 -355 4 -5 15 -35 25 -65 10
-30 28 -79 41 -108 13 -29 24 -55 24 -59 0 -9 47 -107 142 -298 93 -187 125
-246 184 -338 24 -37 44 -70 44 -73 0 -3 20 -34 45 -68 25 -35 45 -68 45 -74
0 -5 7 -12 15 -16 8 -3 15 -10 15 -16 0 -7 35 -56 78 -111 42 -55 98 -128 124
-161 60 -77 236 -268 248 -268 5 0 30 -22 55 -49 48 -51 205 -247 205 -255 0
-3 26 -40 58 -83 32 -43 66 -91 76 -108 11 -16 62 -83 115 -148 53 -65 107
-137 120 -159 88 -149 281 -251 502 -265 56 -4 72 -1 110 20 55 31 64 62 20
72 -36 8 -129 105 -205 215 -66 96 -94 154 -107 226 -13 70 -7 221 10 253 12
21 14 21 30 7 10 -9 20 -16 24 -16 9 0 -4 62 -16 78 -10 13 -55 16 -73 4 -18
-12 -43 -67 -50 -111 -4 -23 -10 -41 -15 -41 -5 0 -9 4 -9 9 0 31 -283 291
-317 291 -6 0 -13 3 -15 8 -6 14 -141 88 -350 191 -145 72 -212 111 -224 129
-10 15 -52 68 -94 117 -99 117 -150 182 -150 189 0 3 -29 46 -65 95 -36 48
-65 91 -65 94 0 4 -20 38 -45 76 -25 38 -45 74 -45 79 0 6 -4 12 -8 14 -26 10
-253 472 -297 603 -9 27 -20 54 -24 60 -5 5 -18 42 -31 80 -12 39 -28 84 -35
100 -8 17 -21 62 -31 100 -9 39 -20 75 -24 80 -4 6 -20 64 -34 130 -15 66 -31
127 -35 136 -5 8 -19 78 -31 155 -12 76 -26 148 -31 159 -35 80 -88 990 -59
1019 5 5 10 42 10 81 0 79 26 373 40 450 70 387 120 627 140 670 5 11 20 61
34 110 35 130 74 255 90 290 7 17 24 62 36 100 12 39 25 75 30 80 4 6 13 28
20 50 43 135 266 596 376 776 19 31 34 60 34 63 0 4 5 12 10 19 6 7 31 46 56
87 154 250 374 553 584 800 181 213 504 536 717 717 44 37 278 226 308 248
158 116 226 165 231 165 3 0 43 27 90 60 46 33 87 60 90 60 3 0 36 20 74 45
38 25 74 45 79 45 6 0 11 5 11 10 0 6 4 10 9 10 5 0 30 12 55 28 214 124 615
320 776 377 41 14 79 30 85 34 5 5 42 18 80 31 39 12 84 28 100 35 17 7 57 20
90 29 33 9 69 21 80 27 59 29 448 124 640 156 83 14 159 29 170 34 34 14 307
39 559 51 182 9 297 9 480 0 256 -13 508 -37 541 -51 11 -5 80 -19 153 -30 73
-12 140 -25 150 -31 9 -5 61 -18 115 -30 55 -11 106 -24 115 -29 10 -5 62 -21
116 -35 55 -15 104 -30 110 -35 6 -5 42 -18 80 -30 38 -12 74 -25 80 -30 6 -5
29 -14 51 -21 113 -36 427 -189 570 -279 28 -17 60 -35 73 -41 13 -5 49 -27
80 -48 31 -21 65 -41 75 -45 9 -3 17 -11 17 -17 0 -5 5 -10 11 -10 6 0 30 -13
54 -30 50 -34 55 -36 55 -15 0 8 5 23 11 33 9 14 7 27 -10 60 -12 24 -29 51
-37 60 -8 9 -51 62 -96 117 -135 165 -583 607 -744 733 -190 149 -251 195
-310 235 -38 26 -94 65 -124 86 -91 64 -227 151 -234 151 -4 0 -31 15 -59 33
-74 48 -214 127 -226 127 -5 0 -11 3 -13 8 -5 12 -456 232 -476 232 -4 0 -20
7 -37 16 -16 9 -55 25 -85 36 -30 11 -59 24 -65 28 -5 4 -41 17 -80 30 -38 12
-83 28 -100 36 -42 18 -293 100 -335 109 -19 4 -39 11 -45 15 -5 5 -62 20
-125 35 -63 14 -124 30 -135 35 -11 5 -72 19 -135 30 -63 12 -124 25 -135 30
-19 9 -249 47 -460 75 -262 35 -870 53 -1200 35z m-1774 -11057 c26 -18 51
-33 58 -33 6 0 11 -4 11 -10 0 -5 14 -17 32 -26 41 -21 188 -168 188 -188 0
-9 5 -16 10 -16 6 0 13 -8 17 -17 3 -10 21 -38 38 -63 34 -46 62 -93 117 -193
40 -74 99 -140 149 -169 21 -12 39 -26 39 -30 0 -5 -4 -7 -9 -3 -6 3 -47 10
-93 16 -112 14 -156 37 -234 124 -106 119 -171 208 -394 547 -50 75 -95 140
-100 143 -6 3 -10 11 -10 16 0 12 114 -50 181 -98z"/>
<path d="M19078 10079 c-10 -5 -18 -19 -18 -31 0 -17 4 -19 28 -12 46 13 105
5 157 -22 54 -28 145 -110 145 -131 0 -8 7 -16 15 -19 8 -4 15 -10 15 -15 0
-6 16 -33 35 -62 19 -28 35 -59 35 -69 0 -9 5 -20 10 -23 13 -8 12 8 -5 80
-31 132 -124 257 -213 286 -20 6 -41 15 -46 20 -14 12 -137 11 -158 -2z"/>
<path d="M18654 10051 c-50 -13 -99 -48 -158 -113 -98 -107 -129 -267 -85
-423 14 -48 13 -51 -9 -70 -25 -23 -52 -128 -52 -210 0 -144 41 -308 104 -417
l21 -37 -221 -218 c-252 -248 -312 -328 -380 -498 -11 -27 -12 -28 -19 -10
-26 77 -77 155 -137 215 -188 183 -192 186 -231 152 -44 -38 -52 -79 -52 -253
0 -104 4 -175 11 -190 7 -13 20 -46 29 -74 27 -76 51 -111 152 -216 68 -72
100 -114 123 -165 l32 -69 -1 -245 c0 -135 -5 -290 -11 -345 -17 -173 -61
-470 -71 -480 -5 -5 -9 -21 -9 -36 0 -41 -38 -158 -72 -219 -17 -30 -57 -92
-89 -137 -33 -45 -59 -86 -59 -92 0 -5 -6 -14 -14 -18 -7 -4 -18 -17 -24 -28
-8 -17 -99 -136 -171 -225 -225 -278 -663 -715 -887 -886 -28 -21 -94 -74
-147 -116 -53 -43 -100 -78 -106 -78 -6 0 -16 -9 -23 -20 -7 -11 -17 -20 -21
-20 -5 0 -35 -20 -67 -45 -32 -25 -60 -45 -62 -45 -2 0 11 46 30 103 l34 102
9 305 c8 298 14 362 44 427 8 17 15 39 15 48 0 15 2 16 16 4 15 -12 16 -11 10
8 -7 21 -5 21 31 11 61 -18 200 -15 268 6 118 35 218 136 256 259 18 56 20 86
17 175 -4 115 -12 136 -90 252 -15 22 -16 34 -6 93 12 72 1 151 -24 184 -37
46 -94 96 -128 109 -28 11 -48 30 -71 67 -66 106 -207 219 -306 246 -21 6 -62
11 -90 11 -47 0 -53 -2 -53 -20 0 -12 16 -37 36 -56 40 -41 60 -38 23 2 l-24
27 30 -6 c75 -14 162 -69 248 -154 l68 -68 -43 -3 c-44 -3 -78 -25 -78 -49 0
-8 -27 17 -60 55 -68 80 -144 140 -214 172 -43 19 -63 22 -145 18 -90 -4 -100
-6 -152 -40 -88 -57 -128 -124 -136 -232 -3 -39 0 -90 5 -113 10 -43 10 -43
-18 -43 -74 0 -126 -101 -118 -232 l4 -69 -32 63 c-17 35 -39 95 -48 133 -9
39 -21 84 -26 100 -6 19 -6 42 0 60 5 17 15 52 22 80 17 66 85 140 122 133 27
-5 30 -1 20 26 -9 22 -60 20 -98 -4 -68 -41 -136 -180 -136 -275 0 -77 45
-192 105 -270 30 -38 71 -96 92 -128 135 -208 137 -211 208 -260 120 -83 165
-100 283 -105 101 -4 103 -4 176 32 41 20 99 61 132 92 l59 55 -60 -7 c-115
-13 -290 -19 -355 -12 -73 9 -167 51 -228 104 -45 38 -115 151 -131 209 -16
57 -13 141 4 175 19 37 59 40 99 9 21 -17 29 -19 41 -9 20 17 19 37 -3 42 -50
13 -74 174 -37 251 24 50 70 93 122 113 54 21 150 14 214 -15 24 -10 64 -27
89 -37 25 -10 47 -21 50 -25 3 -3 21 -14 40 -24 19 -9 50 -29 69 -43 27 -20
35 -22 42 -11 6 11 11 11 21 1 6 -6 31 -12 53 -12 70 0 142 -27 162 -60 9 -17
25 -30 35 -30 28 0 66 -91 79 -189 7 -47 16 -90 20 -96 5 -5 9 -18 9 -30 0
-12 5 -26 11 -32 15 -15 25 -228 12 -256 -6 -12 -19 -44 -28 -70 -50 -141
-233 -232 -397 -198 -42 9 -55 16 -54 29 0 9 -5 17 -11 16 -7 -1 -22 -2 -32
-2 -26 -3 -35 -31 -16 -52 25 -28 17 -38 -32 -47 -89 -14 -194 -9 -243 13 -60
27 -110 71 -110 96 0 16 -6 19 -32 16 -27 -2 -34 -8 -36 -28 -6 -55 99 -157
187 -181 25 -6 50 -16 55 -20 13 -12 90 -11 102 0 5 5 26 13 47 16 38 7 38 7
31 -21 -4 -16 -10 -33 -14 -39 -13 -17 -30 -124 -37 -234 -6 -102 -6 -103 -24
-80 -10 13 -19 30 -19 37 0 21 -107 128 -167 168 -29 19 -80 60 -112 90 -62
57 -97 68 -133 40 -19 -14 -24 -41 -9 -50 4 -3 11 -30 15 -61 6 -51 32 -133
46 -145 3 -3 10 -16 17 -31 32 -74 183 -232 280 -292 23 -14 44 -36 48 -47 31
-99 -30 -231 -182 -390 -58 -61 -122 -118 -146 -130 -23 -12 -64 -35 -92 -52
-152 -94 -430 -237 -441 -226 -2 3 6 27 20 54 13 27 29 74 36 104 6 30 16 71
22 91 13 45 7 108 -27 289 -30 164 -29 204 10 254 31 41 44 108 25 131 -28 34
-116 13 -220 -53 -96 -61 -108 -70 -191 -152 -77 -76 -88 -92 -134 -190 -15
-30 -30 -63 -35 -72 -19 -35 -31 -117 -40 -269 -12 -206 -46 -320 -124 -420
-42 -54 -48 -57 -142 -87 -55 -18 -124 -37 -154 -43 -30 -6 -59 -15 -65 -19
-5 -4 -64 -17 -130 -29 -66 -12 -133 -26 -148 -31 -78 -26 -462 -60 -668 -60
-209 0 -542 32 -637 62 l-39 12 38 28 c101 73 307 295 330 355 5 13 13 23 19
23 5 0 10 4 10 10 0 5 14 33 32 61 38 62 69 118 98 178 12 24 45 77 73 118 29
41 57 84 64 96 12 21 193 200 245 242 96 78 208 127 341 150 29 4 43 14 61 43
13 20 27 49 30 64 5 24 2 30 -26 44 -28 14 -55 16 -188 11 -151 -6 -325 -28
-365 -47 -11 -5 -58 -18 -105 -30 -47 -12 -98 -28 -115 -35 -16 -8 -54 -23
-82 -34 -192 -75 -380 -210 -522 -376 -35 -40 -130 -182 -158 -235 -17 -30
-58 -109 -93 -175 -86 -166 -87 -167 -89 -53 -1 91 -21 219 -40 255 -5 10 -17
41 -26 68 -33 96 -141 293 -179 324 -8 7 -20 10 -26 6 -19 -12 -10 -50 29
-127 22 -42 42 -87 46 -100 4 -12 16 -41 26 -63 35 -76 51 -160 56 -285 6
-147 -10 -230 -57 -298 -17 -23 -30 -46 -30 -51 0 -15 -113 -94 -155 -109 -66
-23 -142 -22 -243 4 -52 13 -108 30 -125 39 -18 8 -66 25 -107 39 -102 33
-212 76 -225 86 -20 17 -95 38 -101 28 -7 -11 10 -31 111 -136 64 -67 67 -73
40 -66 -121 29 -342 127 -405 180 -81 69 -99 87 -97 97 1 6 -8 13 -20 15 -34
5 -30 -44 7 -95 75 -102 239 -203 363 -223 85 -14 184 -13 189 1 2 7 41 -15
88 -50 97 -72 117 -83 185 -101 28 -7 56 -18 64 -24 24 -19 240 -13 276 7 17
9 37 17 46 17 8 0 37 14 64 31 43 27 52 30 70 18 39 -26 110 -58 127 -59 9 0
20 -4 23 -10 8 -14 81 -13 107 1 18 10 24 8 41 -15 22 -30 27 -31 70 -12 80
34 89 36 101 27 7 -6 68 -20 137 -32 138 -24 162 -32 202 -68 44 -40 36 -51
-40 -51 -87 -1 -143 -14 -221 -52 -84 -41 -122 -94 -90 -126 19 -19 48 -14 57
11 7 18 29 31 88 53 65 24 93 28 174 28 57 1 102 -4 110 -11 8 -6 34 -17 58
-24 58 -17 153 -105 176 -161 23 -59 37 -167 44 -348 l6 -155 26 45 c14 25 34
77 43 115 10 39 22 78 27 87 13 24 11 144 -2 187 -17 53 -52 145 -60 156 -65
87 -176 166 -257 183 -32 7 -68 45 -71 75 -2 14 139 8 163 -9 14 -8 27 -11 30
-6 10 16 95 -8 157 -44 78 -46 155 -123 181 -181 17 -40 20 -59 15 -125 -4
-42 -11 -85 -16 -95 -14 -27 -64 -223 -59 -229 3 -3 15 10 27 28 11 18 36 53
56 78 52 67 77 141 78 230 1 41 -4 94 -11 117 -17 57 -81 136 -152 186 -32 23
-59 45 -59 50 -1 4 36 7 82 8 45 0 114 4 152 9 175 22 374 51 415 60 25 6 101
24 170 39 143 33 267 67 390 106 47 15 135 43 195 62 97 31 206 74 300 118 17
8 55 24 85 35 30 12 154 70 275 130 121 60 231 112 245 116 13 4 57 30 98 58
40 28 81 56 90 61 9 6 57 36 105 68 49 31 90 57 93 57 3 0 41 26 85 57 45 32
94 66 109 75 15 9 70 48 121 87 52 39 103 78 114 86 40 30 300 252 314 268 7
9 17 17 22 17 14 0 401 392 495 501 152 175 194 226 194 235 0 5 9 15 20 22
11 7 20 17 20 22 0 5 28 47 63 92 35 46 70 94 80 108 60 88 127 191 127 194 0
3 16 28 35 57 19 30 35 51 35 47 0 -13 -52 -173 -60 -183 -4 -5 -11 -21 -15
-35 -13 -45 -139 -307 -198 -412 -18 -31 -45 -81 -61 -110 -16 -29 -42 -72
-57 -95 -16 -23 -29 -46 -29 -52 0 -6 -4 -11 -8 -11 -5 0 -15 -15 -24 -32 -9
-18 -43 -70 -77 -115 -34 -44 -61 -84 -61 -88 0 -8 -141 -191 -170 -220 -11
-12 -20 -24 -20 -29 0 -9 -92 -116 -259 -300 -200 -221 -255 -273 -629 -609
-48 -44 -112 -98 -142 -120 -30 -23 -100 -78 -156 -122 -151 -119 -459 -338
-538 -384 -15 -9 -64 -40 -108 -69 -43 -28 -81 -52 -84 -52 -2 0 -33 -18 -68
-40 -35 -22 -66 -40 -71 -40 -4 0 -19 -9 -34 -19 -14 -10 -60 -37 -101 -59
-127 -67 -145 -77 -150 -82 -10 -10 -238 -120 -249 -120 -6 0 -11 -4 -11 -10
0 -5 -4 -10 -9 -10 -5 0 -49 -18 -98 -41 -83 -38 -146 -67 -309 -138 -39 -17
-73 -31 -77 -31 -4 0 -30 -11 -59 -24 -29 -13 -78 -31 -108 -41 -30 -10 -59
-21 -65 -25 -15 -11 -419 -146 -493 -165 -35 -9 -71 -20 -80 -26 -16 -8 -55
-19 -327 -85 -117 -28 -160 -29 -103 0 48 23 197 163 223 209 86 154 114 207
126 242 7 22 17 46 23 53 6 8 5 17 -3 25 -8 8 -15 5 -27 -13 -30 -47 -329
-330 -408 -387 -202 -146 -486 -229 -692 -203 -95 12 -169 47 -169 80 0 16
-10 25 -40 36 -130 45 -74 -95 67 -165 34 -17 57 -31 52 -32 -62 -7 -227 -21
-292 -25 -72 -5 -90 -2 -130 16 -88 41 -162 129 -177 213 -4 21 -11 40 -16 43
-13 7 -11 101 2 143 31 101 45 126 73 136 22 7 30 7 33 -2 5 -13 33 -19 33 -7
0 3 -9 19 -21 35 -15 22 -28 29 -52 29 -47 0 -74 -24 -108 -93 -65 -135 -61
-290 11 -430 22 -44 40 -81 40 -83 0 -19 -488 24 -680 61 -148 28 -315 65
-335 74 -11 6 -63 21 -116 35 -53 15 -110 33 -125 41 -16 8 -53 20 -82 27 -29
6 -56 16 -59 21 -3 5 -8 43 -12 83 -6 74 -23 104 -29 52 -2 -16 -7 -28 -11
-28 -4 0 -13 -24 -20 -52 -8 -29 -26 -80 -41 -113 -15 -33 -36 -82 -46 -110
-72 -197 -330 -421 -574 -500 -30 -10 -60 -22 -66 -26 -6 -5 -48 -14 -94 -21
-84 -12 -103 -25 -80 -53 7 -8 27 -17 46 -21 36 -7 219 20 238 35 6 4 36 16
66 25 121 37 267 120 378 214 57 49 172 194 172 218 0 8 3 14 8 14 9 0 42 90
42 114 0 28 24 28 96 1 136 -51 342 -108 454 -126 41 -7 77 -15 80 -19 6 -9
327 -50 386 -50 22 0 45 -5 50 -10 6 -6 156 -14 370 -19 346 -9 443 -6 544 19
19 5 96 14 170 20 196 16 660 88 705 110 11 5 70 18 130 30 61 12 119 25 130
30 11 5 61 19 110 30 50 11 99 25 110 30 48 21 60 20 88 -9 15 -16 41 -32 57
-36 16 -4 32 -11 35 -16 4 -5 17 -9 30 -9 13 0 26 -4 29 -9 7 -11 26 -14 221
-41 121 -17 181 -20 310 -16 207 7 300 22 575 94 223 59 256 63 445 65 77 1
146 6 153 10 16 11 15 62 -2 95 -32 61 -238 187 -388 236 -109 35 -165 43
-308 41 -72 -1 -130 -1 -130 0 0 1 48 24 108 51 59 27 109 51 112 54 3 3 70
38 150 78 164 82 273 140 343 183 26 16 51 29 56 29 4 0 19 8 32 18 13 10 44
30 69 43 25 13 49 27 55 32 18 13 136 87 140 87 6 0 287 190 341 231 28 22 55
39 59 39 5 0 15 7 24 15 9 8 61 49 116 89 55 41 111 84 125 95 128 104 169
137 263 218 59 51 115 100 125 108 9 8 48 42 85 76 l68 63 77 -76 c134 -132
218 -178 325 -178 63 0 151 26 184 54 22 19 25 26 16 51 -5 16 -18 33 -28 39
-11 6 -52 37 -93 69 -40 33 -98 74 -129 93 -36 21 -50 34 -37 34 70 1 260 22
268 30 6 6 18 10 27 10 10 0 40 10 69 22 43 20 50 27 48 48 -3 29 -14 29 -98
6 -40 -12 -100 -16 -227 -16 -104 0 -174 -4 -178 -10 -7 -12 -45 -13 -45 -2 0
5 12 19 26 33 35 32 242 271 330 380 85 107 254 334 254 343 0 3 24 41 53 84
73 106 125 198 234 412 81 159 141 295 169 380 9 30 20 60 25 65 4 6 19 48 33
95 13 47 38 128 55 182 67 218 106 464 132 823 6 88 16 205 23 260 l11 100 70
18 c67 17 255 94 265 107 3 4 19 14 35 23 42 21 130 111 150 153 40 85 43 233
5 254 -52 28 -140 -3 -268 -93 -73 -51 -222 -188 -222 -204 0 -4 -8 -17 -16
-28 -15 -18 -16 -7 -11 140 5 152 30 348 47 370 4 6 15 35 25 65 48 149 136
269 405 555 47 49 95 103 107 119 l21 30 44 -40 c25 -21 70 -52 99 -69 48 -26
63 -29 139 -29 62 0 94 5 120 18 26 14 59 19 135 20 117 1 191 24 271 84 63
49 139 142 175 217 45 94 37 105 -27 35 -85 -91 -204 -186 -275 -219 -118 -55
-209 -51 -311 12 -71 44 -85 16 -25 -50 11 -13 18 -23 15 -23 -3 0 -45 7 -93
15 -100 18 -149 43 -218 113 -46 47 -48 51 -69 158 -12 60 -26 112 -31 115 -5
4 -12 56 -15 117 -7 160 8 202 46 123 30 -61 116 -169 120 -149 2 9 -6 35 -16
57 -11 22 -30 85 -42 138 -12 54 -26 106 -32 116 -5 10 -14 54 -20 98 -20 131
12 230 99 310 56 53 101 69 191 69 72 0 83 2 80 16 -2 9 -15 26 -31 37 -30 23
-127 32 -183 18z m-977 -1900 c66 -80 85 -155 86 -351 2 -154 -3 -186 -22
-137 -5 12 -34 51 -65 87 -31 36 -65 85 -77 110 -11 25 -25 53 -31 64 -18 33
-31 188 -24 269 l8 78 41 -34 c23 -19 61 -57 84 -86z m687 -488 c-6 -37 -60
-133 -74 -133 -4 0 -18 -11 -32 -23 -32 -30 -146 -88 -218 -112 -30 -10 -67
-24 -82 -32 -53 -26 -28 15 63 106 50 49 176 141 231 168 18 9 49 27 68 40 47
31 52 29 44 -14z m-2670 -2573 c102 -79 149 -141 161 -215 l7 -40 -62 60 c-34
33 -79 83 -100 111 -37 49 -75 124 -63 124 3 0 28 -18 57 -40z m-2660 -539
c-89 -89 -186 -213 -235 -300 -124 -220 -186 -306 -309 -430 -169 -170 -342
-270 -510 -296 -25 -4 -53 -12 -63 -17 -38 -20 -29 4 19 55 81 84 137 156 197
252 31 50 61 95 67 102 5 7 10 15 10 19 0 4 23 40 50 80 28 40 50 78 50 83 0
6 6 14 13 18 6 4 25 27 41 50 88 131 370 343 516 388 14 4 43 16 66 27 31 14
142 51 173 57 2 1 -36 -39 -85 -88z m1879 -18 c81 -384 62 -489 -121 -672 -93
-93 -271 -215 -288 -198 -2 2 7 19 20 38 14 20 34 69 46 110 12 41 25 81 30
90 5 9 14 70 20 135 6 65 16 139 21 164 9 43 15 58 56 148 17 35 185 212 202
212 5 0 11 -12 14 -27z m1680 -605 c29 -12 68 -33 87 -47 46 -33 140 -123 140
-134 0 -15 -60 1 -115 29 -27 14 -86 59 -130 100 -66 61 -76 74 -57 74 13 0
47 -10 75 -22z m-2147 -1680 c72 -22 168 -69 194 -95 13 -13 13 -14 -5 -12
-33 4 -144 -11 -225 -31 -41 -11 -86 -21 -100 -23 -14 -3 -70 -16 -125 -30
-232 -59 -425 -74 -660 -52 -113 10 -279 50 -270 65 3 5 34 13 69 19 36 6 98
22 138 35 222 71 445 124 633 150 76 11 283 -4 351 -26z"/>
<path d="M18959 9977 c-48 -14 -114 -60 -148 -103 -13 -17 -29 -24 -53 -24
-100 0 -169 -149 -176 -380 -2 -68 1 -133 6 -145 6 -11 15 -47 22 -80 12 -64
31 -127 41 -135 3 -3 11 -19 18 -37 20 -49 77 -133 113 -167 52 -48 158 -95
158 -69 0 3 -11 20 -23 37 -24 31 -90 137 -129 206 -11 19 -24 40 -28 45 -4 6
-15 33 -25 60 -10 28 -22 55 -26 60 -20 28 -41 195 -37 300 4 115 19 163 68
225 l20 25 -10 -35 c-15 -54 -12 -126 5 -140 23 -19 39 1 41 50 4 77 87 179
164 200 99 28 155 3 280 -124 52 -53 98 -96 102 -96 11 0 10 36 -1 58 -5 9
-17 46 -27 82 -21 75 -70 132 -145 168 -57 28 -150 36 -210 19z"/>
<path d="M18973 9800 c-29 -12 -41 -56 -21 -76 15 -15 48 -10 48 7 0 5 14 9
31 9 42 0 93 -52 109 -111 7 -24 16 -48 20 -54 4 -5 17 -43 28 -84 35 -121 47
-111 47 37 0 122 -11 153 -80 229 -39 44 -44 47 -101 50 -32 1 -69 -1 -81 -7z"/>
<path d="M18854 9703 c-4 -21 -11 -43 -16 -50 -14 -18 -21 -297 -10 -378 25
-177 67 -283 137 -344 49 -43 79 -41 110 9 41 64 28 146 -15 95 -7 -8 -21 -15
-30 -15 -20 0 -60 44 -60 66 0 8 -4 14 -8 14 -23 0 -64 204 -69 342 -4 99 -3
107 13 101 14 -5 16 -2 11 18 -4 13 -7 59 -7 102 0 75 -1 77 -25 77 -20 0 -25
-6 -31 -37z"/>
<path d="M18961 9671 c-12 -7 -13 -33 -8 -138 4 -70 11 -141 16 -158 5 -16 19
-68 31 -115 11 -46 24 -87 28 -90 4 -3 17 -26 29 -52 13 -27 27 -48 33 -48 12
0 13 27 1 34 -5 3 -14 50 -21 103 -6 54 -21 148 -32 208 -10 61 -25 143 -31
184 -12 75 -20 88 -46 72z"/>
<path d="M19358 9568 c-3 -7 6 -45 19 -86 13 -40 23 -81 23 -92 0 -10 5 -22
10 -25 12 -8 13 -140 1 -163 -5 -9 -11 -41 -13 -69 -7 -73 11 -69 52 10 59
113 51 211 -31 382 -23 49 -53 69 -61 43z"/>
<path d="M19074 9509 c-4 -6 3 -41 14 -78 12 -36 28 -101 36 -145 17 -86 22
-98 37 -76 24 38 32 96 21 158 -16 98 -81 184 -108 141z"/>
<path d="M19597 9473 c-12 -11 -7 -99 6 -111 17 -18 17 -378 0 -413 -6 -13
-19 -51 -28 -84 -32 -114 -133 -243 -222 -281 -96 -42 -100 -47 -58 -66 35
-16 117 11 178 57 102 78 194 241 223 396 9 46 20 98 25 115 12 41 12 181 -1
189 -5 3 -10 19 -10 35 0 39 -17 76 -58 128 -33 42 -43 48 -55 35z"/>
<path d="M19270 9283 c0 -124 -2 -143 -22 -183 -14 -27 -40 -56 -65 -73 -48
-32 -54 -53 -20 -66 37 -14 77 -1 116 38 59 60 81 116 81 207 0 69 -5 87 -33
143 -51 101 -57 94 -57 -66z"/>
<path d="M7160 6800 c-8 -5 -32 -10 -53 -10 -22 0 -84 -9 -140 -21 -178 -36
-357 -141 -357 -210 0 -34 15 -37 44 -10 56 51 217 117 340 140 114 21 403 9
441 -19 6 -4 33 -13 60 -20 63 -16 195 -78 260 -122 51 -34 175 -149 175 -162
0 -3 11 -24 24 -45 35 -55 56 -146 56 -242 0 -81 -19 -190 -40 -226 -20 -37
-136 -308 -165 -386 -10 -26 -22 -50 -26 -53 -12 -7 -11 -34 0 -34 16 0 165
126 215 181 27 30 57 74 67 99 11 25 25 56 33 70 7 14 24 68 36 120 12 52 27
111 32 131 12 42 7 111 -16 229 -23 118 -86 228 -182 318 -39 37 -78 72 -85
77 -26 19 -155 95 -162 95 -3 0 -30 11 -59 24 -29 13 -82 31 -118 40 -133 32
-354 54 -380 36z"/>
<path d="M15823 6409 c-37 -23 -49 -66 -38 -126 9 -55 60 -154 94 -187 l29
-28 12 22 c10 18 7 31 -15 78 -14 30 -29 77 -32 104 -7 56 4 61 66 29 75 -38
134 -62 139 -56 7 7 -32 85 -61 121 -23 30 -96 64 -134 64 -15 0 -42 -10 -60
-21z"/>
<path d="M6335 6351 c-3 -6 -18 -11 -33 -11 -30 0 -170 -37 -187 -49 -5 -4
-38 -20 -73 -35 -76 -33 -233 -137 -299 -198 -168 -155 -299 -362 -338 -538
-9 -41 -21 -85 -26 -98 -11 -29 -12 -255 0 -267 4 -6 14 -32 20 -60 11 -42 92
-209 110 -225 4 -3 19 -24 34 -47 15 -24 32 -43 38 -43 13 0 4 63 -17 126 -17
51 -44 283 -44 381 0 75 22 209 39 240 6 10 24 47 40 83 37 80 56 112 103 176
51 69 211 221 283 269 101 67 240 134 312 150 37 9 76 21 85 26 24 12 235 12
243 -1 3 -5 15 -10 26 -10 23 0 142 -39 149 -49 3 -3 15 -11 27 -16 48 -21
161 -111 202 -162 46 -57 55 -62 65 -37 11 30 -28 89 -118 179 -154 153 -300
216 -518 223 -74 2 -118 -1 -123 -7z"/>
<path d="M16150 6230 c0 -5 15 -27 34 -47 33 -37 84 -126 101 -174 7 -20 9
-14 12 30 5 71 -9 103 -71 156 -49 44 -76 56 -76 35z"/>
<path d="M15677 6223 c-29 -28 56 -199 153 -305 18 -21 38 -38 43 -38 6 0 25
-11 42 -25 47 -35 117 -51 164 -36 38 11 139 106 127 118 -6 6 -64 -9 -114
-28 -29 -11 -57 -11 -80 0 -9 5 -41 19 -70 32 -60 26 -162 126 -162 158 0 12
-4 21 -8 21 -4 0 -21 25 -37 55 -28 52 -43 64 -58 48z"/>
<path d="M16327 6125 c14 -159 10 -236 -17 -281 -42 -69 -87 -119 -149 -164
-34 -24 -61 -49 -61 -55 0 -7 9 -20 19 -30 19 -16 22 -16 81 20 113 68 202
182 216 273 3 23 10 45 15 48 16 9 10 87 -11 144 -12 33 -36 70 -61 95 l-41
40 9 -90z"/>
<path d="M16140 6128 c-14 -5 -57 -7 -98 -3 -73 7 -74 7 -70 -16 2 -17 18 -31
58 -51 89 -44 132 -32 146 39 7 36 -2 44 -36 31z"/>
<path d="M6458 5983 c-21 -2 -38 -8 -38 -14 0 -5 -8 -9 -19 -9 -50 0 -168 -63
-238 -127 -72 -64 -89 -83 -127 -133 -86 -115 -150 -232 -186 -341 -12 -35
-27 -77 -34 -94 -8 -16 -21 -75 -31 -130 -9 -55 -21 -110 -26 -123 -5 -13 -9
-62 -9 -110 0 -91 8 -112 42 -112 20 0 25 16 7 22 -13 4 5 166 21 196 5 10 16
51 25 92 10 41 25 93 35 115 10 22 21 51 25 65 11 38 85 181 111 216 13 17 24
35 24 41 0 6 37 50 82 98 75 80 169 151 241 183 51 22 151 33 208 22 95 -18
131 -44 246 -171 99 -110 108 -118 111 -93 5 38 -26 170 -51 212 -77 137 -247
216 -419 195z"/>
<path d="M7056 5916 c3 -9 10 -16 16 -16 10 0 156 -97 173 -116 5 -6 24 -19
40 -29 60 -37 176 -138 219 -190 25 -31 52 -78 61 -107 9 -29 21 -62 27 -72
15 -28 22 -223 10 -271 -32 -127 -55 -200 -72 -233 -11 -20 -20 -41 -20 -46 0
-18 -84 -151 -137 -218 -65 -80 -176 -173 -229 -192 -81 -28 -41 -76 42 -51
84 25 186 106 297 237 111 130 200 335 239 548 10 57 3 236 -10 254 -5 6 -14
36 -21 66 -18 77 -80 178 -160 260 -37 39 -71 70 -75 70 -3 0 -24 12 -46 26
-22 15 -77 36 -123 48 -45 12 -86 24 -92 28 -5 3 -40 9 -78 13 -60 7 -67 6
-61 -9z"/>
<path d="M6323 5612 c-6 -4 -19 -34 -28 -67 -10 -33 -21 -64 -25 -70 -11 -14
-67 -211 -96 -335 -13 -58 -28 -118 -34 -135 -17 -55 -32 -219 -27 -298 6 -84
34 -147 90 -199 24 -23 38 -28 80 -28 50 0 53 2 112 63 63 67 91 110 155 245
46 98 69 178 77 274 3 38 10 71 14 74 5 3 9 32 9 65 0 76 -15 77 -64 4 -20
-30 -36 -57 -36 -59 0 -3 -20 -34 -45 -70 -25 -35 -70 -113 -99 -173 -59 -119
-122 -218 -139 -218 -6 0 -14 14 -19 30 -10 34 -1 225 12 270 5 17 19 90 30
164 12 73 25 141 30 150 15 28 51 237 48 277 -3 39 -20 52 -45 36z"/>
<path d="M6830 5538 c0 -2 -2 -59 -4 -128 -2 -69 -11 -156 -20 -193 -17 -71
-79 -266 -95 -302 -25 -52 -60 -150 -56 -154 6 -6 75 60 75 71 0 4 15 27 33
51 18 24 39 59 47 78 8 19 17 36 22 39 8 6 31 92 50 183 15 73 21 277 10 301
-6 12 -13 29 -16 39 -3 9 -15 17 -26 17 -11 0 -20 -1 -20 -2z"/>
<path d="M10245 5434 c-11 -2 -53 -21 -94 -42 -92 -46 -154 -112 -206 -218
-33 -69 -39 -90 -43 -169 -6 -129 15 -170 77 -149 34 12 35 40 2 36 -24 -4
-24 -4 -18 72 13 174 156 327 332 356 76 13 211 7 360 -15 49 -8 91 -12 93
-10 4 4 -56 48 -93 68 -122 64 -146 71 -270 73 -66 2 -129 1 -140 -2z"/>
<path d="M7887 5108 c-7 -262 -12 -305 -61 -470 -23 -77 -77 -194 -145 -313
-64 -111 -224 -275 -344 -352 -70 -45 -246 -133 -265 -133 -5 0 -29 -9 -53
-19 -24 -11 -80 -27 -124 -36 -92 -19 -106 -28 -82 -52 15 -15 26 -16 109 -5
103 13 265 62 373 113 149 70 319 204 425 335 36 44 110 160 110 171 0 7 5 13
10 13 6 0 10 4 10 9 0 6 18 47 39 93 67 144 108 302 117 458 7 109 -6 228 -31
285 -8 17 -24 57 -37 89 -13 33 -28 61 -34 63 -8 3 -13 -72 -17 -249z"/>
<path d="M10933 5338 c-24 -12 -32 -47 -10 -49 6 -1 29 -1 51 1 21 1 48 -3 60
-8 11 -5 48 -15 81 -22 128 -25 327 -136 443 -248 94 -89 197 -270 243 -425
12 -40 24 -76 28 -82 4 -5 14 -37 21 -70 l14 -60 6 50 c9 69 -6 273 -24 336
-14 47 -66 148 -91 176 -5 7 -26 33 -45 58 -19 26 -62 69 -95 96 -33 27 -67
55 -75 62 -71 60 -250 142 -353 163 -45 9 -90 20 -99 25 -24 12 -128 10 -155
-3z"/>
<path d="M10540 5224 c-14 -3 -34 -9 -45 -14 -11 -5 -43 -19 -72 -31 -95 -39
-180 -156 -203 -280 -20 -103 -2 -353 28 -392 4 -7 14 -32 21 -57 17 -62 78
-194 116 -255 17 -27 34 -58 38 -67 3 -10 11 -18 17 -18 5 0 10 -6 10 -13 0
-19 88 -115 121 -132 26 -14 30 -14 49 5 11 11 20 32 20 46 0 23 -3 25 -24 20
-21 -5 -31 2 -63 39 -46 55 -127 200 -155 275 -11 30 -26 69 -33 85 -23 53
-45 194 -45 294 0 140 18 192 89 262 59 58 109 79 184 79 43 0 199 -29 212
-40 6 -4 33 -15 60 -24 28 -9 67 -27 87 -41 73 -50 78 -22 10 50 -82 86 -165
152 -227 180 -58 25 -145 38 -195 29z"/>
<path d="M7003 4983 c-10 -16 -40 -57 -68 -93 -28 -36 -82 -112 -120 -170
-139 -210 -302 -336 -453 -349 -74 -7 -88 -21 -40 -43 40 -19 162 -33 153 -18
-3 6 0 10 8 10 27 0 122 47 177 88 57 42 169 151 206 200 66 86 99 143 120
206 13 39 28 78 33 87 5 9 12 37 16 63 8 53 -5 61 -32 19z"/>
<path d="M7157 4761 c-36 -38 -84 -95 -107 -126 -23 -32 -55 -65 -71 -74 -16
-9 -29 -21 -29 -26 0 -15 21 -35 38 -35 24 0 107 72 149 130 34 45 103 177
103 195 0 16 -26 -3 -83 -64z"/>
<path d="M17195 4794 c-136 -50 -224 -297 -173 -487 14 -50 49 -107 67 -107 4
0 12 9 18 20 10 15 10 18 0 14 -23 -8 -37 43 -37 129 0 102 19 174 63 246 30
47 46 61 108 93 54 28 96 42 155 50 57 8 80 16 77 24 -12 33 -204 45 -278 18z"/>
<path d="M17515 4766 c-24 -14 -48 -40 -58 -61 -16 -33 -16 -38 -1 -60 20 -30
44 -33 44 -5 0 24 36 49 84 57 79 13 175 -56 218 -156 11 -25 25 -59 32 -76 8
-16 28 -76 46 -132 18 -57 36 -103 40 -103 12 0 18 142 10 232 -9 95 -41 169
-104 236 -81 87 -226 119 -311 68z"/>
<path d="M10760 4735 c-24 -11 -43 -30 -60 -62 -23 -43 -25 -59 -25 -169 0
-73 5 -131 12 -145 7 -13 19 -53 28 -89 33 -135 125 -263 125 -174 0 14 -4 23
-8 20 -15 -9 -41 60 -63 166 -15 77 -20 130 -17 209 4 134 14 149 97 149 60 0
193 -31 216 -50 10 -8 15 -8 21 1 9 15 -68 87 -132 125 -55 32 -143 41 -194
19z"/>
<path d="M11160 4743 c0 -3 26 -34 58 -67 65 -70 95 -107 152 -189 76 -109 96
-160 150 -367 5 -19 10 -52 10 -72 0 -21 5 -38 10 -38 6 0 10 8 10 18 0 9 7
31 16 47 20 36 24 207 5 213 -6 2 -11 10 -11 18 0 19 -50 118 -61 122 -5 2 -9
9 -9 15 0 20 -110 155 -190 231 -63 60 -86 76 -110 76 -16 0 -30 -3 -30 -7z"/>
<path d="M17278 4553 c-24 -27 -50 -64 -57 -83 -7 -19 -19 -48 -26 -65 -7 -16
-18 -62 -24 -102 -24 -159 -8 -277 54 -408 47 -96 94 -153 197 -231 51 -40 58
-43 58 -24 0 11 -10 37 -23 58 -13 20 -31 60 -41 87 -18 47 -30 76 -90 208
-48 105 -59 248 -31 382 20 94 58 141 109 137 46 -4 55 17 26 58 -18 25 -28
30 -64 30 -39 0 -48 -5 -88 -47z"/>
<path d="M11090 4451 c0 -10 18 -41 40 -67 22 -27 40 -54 40 -60 0 -16 34 -44
52 -44 20 0 30 38 22 79 -9 42 -86 111 -125 111 -22 0 -29 -5 -29 -19z"/>
<path d="M10872 4398 c-17 -17 -16 -21 20 -96 88 -185 231 -331 325 -332 81
-1 134 94 119 213 -9 66 -25 73 -54 23 -9 -16 -23 -37 -30 -45 -7 -9 -21 -27
-31 -40 -28 -38 -64 -22 -158 75 -46 47 -83 89 -83 95 0 18 -71 119 -84 119
-7 0 -17 -5 -24 -12z"/>
<path d="M17493 4383 c-15 -23 -18 -51 -18 -198 l0 -170 35 -69 c36 -70 67
-96 114 -96 25 0 66 41 66 66 0 8 4 14 10 14 5 0 12 17 15 38 4 20 9 45 12 55
7 28 -28 21 -70 -14 -42 -35 -63 -33 -73 8 -4 15 -11 33 -15 39 -18 23 -31
171 -20 224 6 28 11 69 11 90 0 36 -3 40 -25 40 -16 0 -31 -10 -42 -27z"/>
<path d="M17992 4367 c-15 -18 8 -62 31 -62 38 0 90 -97 107 -197 9 -61 -4
-216 -30 -342 -6 -27 -8 -52 -4 -55 11 -11 66 63 101 138 35 72 35 75 31 180
-2 58 -9 115 -16 126 -6 11 -18 37 -26 57 -27 67 -92 144 -135 156 -47 15 -46
15 -59 -1z"/>
<path d="M17710 4298 c0 -25 30 -112 50 -145 16 -27 20 -52 20 -118 0 -46 -4
-87 -10 -90 -15 -9 -12 -35 4 -35 22 0 64 57 77 103 21 78 -12 210 -70 280
-16 20 -71 23 -71 5z"/>
<path d="M17072 4018 c-14 -14 -16 -61 -3 -86 5 -9 14 -42 21 -72 25 -114 130
-298 217 -381 26 -26 77 -62 113 -80 81 -43 162 -46 225 -8 73 44 145 101 145
115 0 8 10 14 23 14 45 0 91 45 133 128 25 51 26 60 21 165 -4 98 -19 167 -37
167 -3 0 -11 -30 -18 -67 -7 -37 -17 -72 -21 -77 -5 -6 -18 -43 -30 -82 -17
-58 -29 -79 -62 -109 -37 -34 -44 -36 -82 -30 -23 4 -43 11 -45 16 -2 5 -9 9
-15 9 -6 0 -38 16 -70 36 -47 29 -61 33 -72 24 -24 -20 -18 -36 35 -88 50 -49
136 -92 186 -92 13 0 24 -5 24 -12 0 -6 -3 -8 -7 -5 -3 4 -13 1 -21 -6 -10 -8
-53 -12 -131 -12 -113 0 -118 1 -174 33 -33 18 -75 50 -95 70 -42 42 -132 171
-132 189 0 7 -4 13 -8 13 -4 0 -18 33 -31 73 -12 39 -26 81 -31 92 -5 11 -10
31 -12 45 -3 28 -27 37 -46 18z"/>
<path d="M8580 3951 c-8 -4 -51 -11 -95 -15 -85 -7 -250 -33 -275 -43 -8 -4
-64 -19 -125 -34 -60 -15 -171 -44 -245 -64 -339 -92 -506 -123 -700 -131
-171 -7 -337 13 -353 41 -11 20 -40 19 -79 -4 -18 -11 -60 -29 -93 -41 -33
-12 -71 -27 -85 -34 -14 -8 -52 -21 -85 -31 -33 -9 -64 -20 -70 -25 -12 -8
-35 -15 -130 -36 -147 -32 -455 -9 -551 41 -16 8 -33 15 -39 15 -20 0 -182 86
-238 126 -32 23 -85 68 -119 100 -52 49 -59 60 -49 76 10 16 8 18 -18 18 -80
0 -50 -71 85 -199 53 -50 101 -91 106 -91 5 0 28 -13 51 -28 51 -35 198 -106
252 -122 22 -6 49 -15 60 -20 39 -18 101 -29 213 -40 195 -20 402 15 501 84
20 14 55 40 79 57 l43 31 142 -139 c78 -76 171 -172 208 -213 37 -41 85 -93
108 -115 23 -21 41 -43 41 -49 0 -5 11 -24 25 -42 14 -19 32 -53 41 -76 8 -24
21 -56 28 -73 24 -52 35 -190 41 -510 4 -170 10 -314 14 -320 5 -5 11 -43 15
-83 7 -81 43 -261 56 -277 4 -5 13 -28 20 -50 20 -61 97 -204 142 -263 42 -56
119 -137 154 -162 101 -72 151 -104 196 -129 134 -71 175 -96 242 -143 60 -44
140 -119 189 -179 32 -38 86 -139 102 -189 16 -51 32 -89 90 -215 13 -27 26
-60 30 -72 8 -30 18 -29 32 4 38 90 44 313 10 388 -48 105 -55 122 -61 155 -4
19 -11 44 -16 55 -4 11 -16 43 -25 70 -35 98 -101 211 -162 276 l-34 36 33 20
c18 11 48 24 65 31 18 6 53 25 77 41 25 17 49 31 55 31 6 0 11 7 11 16 0 10
-6 14 -15 10 -41 -15 -201 -28 -293 -23 -88 5 -114 11 -173 38 -65 30 -83 46
-164 141 -29 35 -96 190 -111 260 -9 40 -20 81 -25 90 -18 35 -29 274 -21 446
10 218 8 242 -24 242 -28 0 -27 6 -50 -260 -25 -285 -8 -553 43 -670 67 -156
111 -228 184 -302 92 -93 141 -118 254 -125 l80 -6 30 -44 c51 -76 94 -153 85
-153 -5 0 -11 4 -15 10 -8 13 -166 130 -176 130 -5 0 -30 13 -56 28 -27 16
-95 55 -153 87 -79 44 -125 79 -186 139 -77 78 -99 108 -145 206 -49 103 -59
129 -76 215 -10 50 -21 92 -24 95 -10 7 -28 186 -44 420 -18 269 -56 509 -83
530 -12 9 -53 102 -48 108 6 5 62 -54 161 -173 65 -77 173 -185 186 -185 4 0
13 7 20 16 11 14 10 18 -5 30 -16 11 -18 22 -13 75 3 34 9 65 14 68 4 3 17 32
28 65 46 139 161 260 325 339 83 40 260 97 301 97 32 0 42 9 28 27 -15 17
-191 18 -222 1 -38 -21 -794 -29 -873 -9 -187 47 -271 90 -362 187 -34 37 -61
69 -58 71 2 2 25 -3 50 -11 25 -9 65 -19 89 -22 23 -4 50 -11 60 -16 26 -13
397 -12 411 2 5 5 25 10 43 10 51 0 326 39 348 50 11 5 74 19 140 30 66 11
129 25 140 30 24 10 155 34 320 57 140 19 400 22 495 5 128 -23 216 -44 255
-62 281 -125 392 -210 627 -479 119 -136 121 -140 52 -96 -32 21 -71 46 -85
56 -53 36 -206 109 -254 121 -27 7 -52 15 -55 19 -24 29 -331 48 -476 29 -55
-7 -193 -14 -309 -14 -210 -2 -210 -2 -305 -35 -123 -42 -240 -115 -308 -191
-153 -172 -239 -349 -259 -533 -3 -32 -10 -60 -14 -63 -12 -7 -11 -171 1 -179
6 -3 10 -21 10 -38 1 -92 76 -286 139 -358 31 -35 48 -37 63 -5 9 20 7 28 -6
41 -24 24 -42 62 -61 130 -10 33 -21 65 -26 71 -5 6 -13 52 -19 103 -11 94 0
243 20 286 5 11 16 47 25 80 10 33 32 86 51 118 19 32 34 60 34 63 0 12 90
121 132 160 49 46 123 104 132 104 4 0 30 15 59 33 62 39 162 87 232 112 28 9
57 20 65 25 39 19 127 32 147 21 13 -7 91 -10 216 -10 107 1 203 -3 213 -9 11
-5 37 -12 59 -16 152 -26 270 -74 395 -160 42 -28 83 -55 92 -61 8 -5 44 -30
79 -55 155 -109 310 -186 409 -201 41 -6 85 -16 97 -21 58 -27 28 15 -108 151
-82 82 -149 155 -149 160 0 6 -25 48 -56 92 -30 44 -58 88 -61 97 -27 73 -275
343 -395 430 -103 75 -271 165 -353 189 -27 8 -54 19 -60 23 -12 9 -133 36
-230 51 -94 14 -326 21 -345 10z m-1416 -686 c65 -22 174 -34 313 -35 122 0
269 15 288 29 6 5 24 11 40 15 30 7 30 6 -15 -37 -85 -83 -160 -208 -181 -302
-7 -30 -16 -55 -20 -55 -4 0 -17 15 -28 33 -27 43 -191 203 -256 247 -27 19
-88 54 -135 77 -86 42 -89 56 -6 28z"/>
<path d="M8917 3243 c-16 -2 -31 -11 -34 -19 -8 -21 17 -46 41 -40 37 9 151
-21 227 -61 51 -26 100 -64 160 -123 144 -142 169 -207 169 -440 -1 -133 -6
-204 -25 -317 -11 -64 8 -53 46 25 18 37 38 78 45 92 38 79 56 279 34 380 -22
99 -79 189 -185 295 -103 103 -192 160 -295 190 -53 15 -143 24 -183 18z"/>
<path d="M11921 3219 c-35 -5 -82 -18 -105 -28 -22 -10 -52 -22 -66 -26 -70
-20 -224 -123 -307 -205 -52 -51 -153 -184 -153 -201 0 -5 -12 -34 -27 -66
-23 -50 -27 -71 -27 -158 -1 -97 0 -102 36 -167 45 -79 125 -155 174 -164 19
-3 37 -10 40 -15 7 -11 57 -12 70 0 5 4 34 13 66 19 75 15 131 39 126 54 -3 7
-24 16 -49 20 -24 4 -53 12 -64 18 -11 5 -57 21 -102 35 -63 20 -88 33 -112
60 -17 20 -31 42 -31 50 0 7 -5 15 -12 17 -15 5 -17 140 -2 159 6 8 18 33 28
57 22 59 80 134 162 213 198 188 430 268 625 213 67 -19 89 -14 89 19 0 27
-49 64 -110 86 -49 17 -173 22 -249 10z"/>
<path d="M11595 3209 c-33 -5 -71 -13 -85 -18 -14 -5 -52 -17 -85 -26 -33 -9
-85 -32 -116 -51 -67 -40 -176 -153 -203 -209 -10 -22 -25 -53 -34 -70 -8 -16
-17 -66 -20 -110 -4 -76 -3 -82 23 -113 40 -48 93 -42 55 6 -21 26 -29 116
-11 126 4 3 14 25 21 49 16 59 87 147 163 203 34 26 69 49 77 52 8 3 21 10 28
15 26 21 189 90 262 112 41 12 76 28 78 34 4 13 -62 13 -153 0z"/>
<path d="M8700 2941 c0 -4 -26 -11 -57 -15 -180 -21 -348 -103 -446 -218 -54
-64 -119 -184 -136 -253 -7 -27 -18 -61 -24 -74 -15 -31 -16 -260 -1 -292 6
-13 22 -47 34 -76 24 -55 61 -80 99 -68 27 8 27 33 -1 37 -13 2 -29 18 -42 43
-18 34 -21 58 -21 160 0 138 11 187 67 297 84 164 306 334 571 437 38 15 34
31 -8 31 -19 0 -35 -4 -35 -9z"/>
<path d="M12275 2897 c-48 -22 -91 -67 -119 -126 -28 -58 -34 -119 -14 -139 9
-9 3 -21 -29 -55 -48 -49 -66 -89 -58 -128 9 -38 59 -79 98 -80 48 -2 -97 -27
-166 -30 -79 -2 -92 12 -91 94 1 82 26 139 100 225 24 27 45 42 60 42 31 0 31
25 1 45 -21 14 -27 13 -73 -9 -29 -14 -56 -37 -67 -55 -10 -17 -22 -31 -28
-31 -5 0 -9 -4 -9 -9 0 -6 -17 -38 -37 -73 -31 -54 -37 -73 -41 -140 -4 -69
-2 -81 21 -120 35 -61 80 -91 142 -96 65 -5 108 16 190 92 47 43 57 58 48 67
-10 10 -8 15 9 23 29 15 143 145 134 153 -4 4 -39 1 -78 -5 -39 -7 -74 -10
-77 -6 -10 10 63 63 87 64 18 0 22 6 22 31 l0 31 -55 -4 c-65 -5 -67 1 -28 66
44 72 118 94 203 60 23 -9 43 -14 46 -11 11 11 -8 63 -35 96 -23 28 -35 34
-77 37 -28 3 -62 -1 -79 -9z"/>
<path d="M12576 2837 c-10 -7 -17 -22 -14 -33 2 -15 15 -20 58 -26 88 -10 110
-54 110 -219 0 -39 4 -69 10 -69 6 0 10 7 10 15 0 8 10 33 22 56 15 29 23 65
25 118 5 90 -15 133 -72 157 -43 18 -125 18 -149 1z"/>
<path d="M8820 2807 c0 -14 17 -60 45 -122 17 -39 35 -136 35 -193 0 -44 -25
-158 -39 -177 -4 -5 -18 -37 -31 -70 -14 -33 -35 -75 -47 -94 -42 -61 -29 -67
34 -15 64 52 121 128 133 177 6 23 15 50 20 59 13 23 13 152 0 192 -5 17 -19
63 -30 101 -24 82 -66 149 -98 153 -14 2 -22 -2 -22 -11z"/>
<path d="M12575 2623 c-16 -20 -60 -74 -97 -120 -64 -80 -142 -152 -180 -166
-25 -9 -23 -44 3 -57 52 -28 184 69 259 192 25 39 59 144 60 181 0 15 -16 4
-45 -30z"/>
<path d="M8632 2472 c-3 -81 -17 -142 -33 -142 -16 0 -10 -26 12 -46 21 -19
21 -18 49 13 55 61 69 185 25 228 -41 42 -50 33 -53 -53z"/>
<path d="M8384 2528 c-18 -29 -38 -129 -38 -193 1 -111 31 -195 95 -265 29
-31 39 -35 93 -38 56 -3 66 0 119 33 32 21 56 42 54 48 -2 7 -24 10 -54 8 -28
-1 -70 3 -94 9 -102 27 -136 106 -125 292 l7 118 -25 0 c-14 0 -28 -5 -32 -12z"/>
<path d="M9378 2504 c-5 -4 -8 -16 -8 -26 0 -10 -4 -26 -9 -36 -6 -9 -19 -48
-30 -87 -23 -78 -126 -290 -184 -377 -98 -146 -284 -270 -442 -293 -25 -4 -48
-11 -51 -16 -7 -12 -200 -11 -222 1 -9 5 -43 14 -75 21 -32 6 -88 26 -123 45
-126 67 -156 33 -49 -55 38 -31 160 -83 228 -97 96 -21 290 -20 389 0 213 45
434 219 515 406 13 30 28 64 33 75 18 39 30 102 40 220 10 115 4 235 -12 219z"/>
</g>
<text x="1180" y="1620" font-family="serif" font-size="200" text-anchor="middle" fill="#ffffff">LUZdeLUNA</text>

</svg>
